<svg width="29" height="32" viewBox="0 0 29 32" fill="none" xmlns="http://www.w3.org/2000/svg">
<g filter="url(#filter0_d_2_11368)">
<circle cx="13" cy="12" r="11.5" fill="#E21B4D" stroke="#1B1B1B"/>
<path d="M9.42169 17V15.236L13.1737 12.17C13.491 11.9087 13.7384 11.6893 13.9157 11.512C14.093 11.3347 14.2424 11.134 14.3637 10.91C14.485 10.6767 14.5457 10.4153 14.5457 10.126C14.5457 9.706 14.4057 9.36533 14.1257 9.104C13.8457 8.83333 13.4677 8.698 12.9917 8.698C12.413 8.698 11.9884 8.87533 11.7177 9.23C11.4564 9.58467 11.3257 10.0187 11.3257 10.532H9.26769C9.26769 9.89733 9.39369 9.30933 9.64569 8.768C9.90702 8.21733 10.313 7.774 10.8637 7.438C11.4237 7.09267 12.1237 6.92 12.9637 6.92C13.6824 6.92 14.3404 7.05533 14.9377 7.326C15.535 7.58733 15.9597 7.956 16.2117 8.432C16.4637 8.908 16.5897 9.454 16.5897 10.07C16.5897 10.6487 16.487 11.1527 16.2817 11.582C16.0857 12.0113 15.843 12.3707 15.5537 12.66C15.2737 12.94 14.8957 13.2713 14.4197 13.654L12.4737 15.236H16.5897V17H9.42169Z" fill="#1B1B1B"/>
</g>
<defs>
<filter id="filter0_d_2_11368" x="-3" y="0" width="32" height="32" filterUnits="userSpaceOnUse" color-interpolation-filters="sRGB">
<feFlood flood-opacity="0" result="BackgroundImageFix"/>
<feColorMatrix in="SourceAlpha" type="matrix" values="0 0 0 0 0 0 0 0 0 0 0 0 0 0 0 0 0 0 127 0" result="hardAlpha"/>
<feOffset dy="4"/>
<feGaussianBlur stdDeviation="2"/>
<feComposite in2="hardAlpha" operator="out"/>
<feColorMatrix type="matrix" values="0 0 0 0 0 0 0 0 0 0 0 0 0 0 0 0 0 0 0.25 0"/>
<feBlend mode="normal" in2="BackgroundImageFix" result="effect1_dropShadow_2_11368"/>
<feBlend mode="normal" in="SourceGraphic" in2="effect1_dropShadow_2_11368" result="shape"/>
</filter>
</defs>
</svg>
