<svg width="24" height="24" viewBox="0 0 24 24" fill="none" xmlns="http://www.w3.org/2000/svg">
<circle cx="12" cy="12" r="11.5" fill="#E21B4D" stroke="#1B1B1B"/>
<path d="M11.9627 17.21C11.1787 17.21 10.502 17.0653 9.9327 16.776C9.3727 16.4773 8.94337 16.076 8.6447 15.572C8.35537 15.068 8.2107 14.4987 8.2107 13.864H10.1427C10.1707 14.3307 10.334 14.718 10.6327 15.026C10.9314 15.334 11.3607 15.488 11.9207 15.488C12.4527 15.488 12.868 15.3527 13.1667 15.082C13.4654 14.8113 13.6147 14.452 13.6147 14.004C13.6147 13.584 13.4654 13.2573 13.1667 13.024C12.868 12.7813 12.4574 12.66 11.9347 12.66H11.2487V11.064H11.9207C12.378 11.064 12.7327 10.952 12.9847 10.728C13.2367 10.504 13.3627 10.2147 13.3627 9.86C13.3627 9.47733 13.232 9.17867 12.9707 8.964C12.7094 8.74933 12.3594 8.642 11.9207 8.642C11.4167 8.642 11.0387 8.78667 10.7867 9.076C10.544 9.36533 10.4087 9.706 10.3807 10.098H8.4347C8.48137 9.15533 8.80804 8.39 9.4147 7.802C10.0214 7.214 10.88 6.92 11.9907 6.92C12.7 6.92 13.302 7.046 13.7967 7.298C14.3007 7.55 14.6787 7.886 14.9307 8.306C15.1827 8.726 15.3087 9.19267 15.3087 9.706C15.3087 10.1447 15.2107 10.532 15.0147 10.868C14.828 11.204 14.5434 11.4887 14.1607 11.722C14.6647 11.9553 15.038 12.2633 15.2807 12.646C15.5327 13.0287 15.6587 13.486 15.6587 14.018C15.6587 14.6433 15.5047 15.1987 15.1967 15.684C14.898 16.1693 14.4687 16.5473 13.9087 16.818C13.358 17.0793 12.7094 17.21 11.9627 17.21Z" fill="#1B1B1B"/>
</svg>
