<svg width="32" height="32" viewBox="0 0 32 32" fill="none" xmlns="http://www.w3.org/2000/svg">
<path d="M9 11C9 10.4688 9.4375 10 10 10H22C22.5312 10 23 10.4688 23 11C23 11.5625 22.5312 12 22 12H10C9.4375 12 9 11.5625 9 11ZM9 16C9 15.4688 9.4375 15 10 15H22C22.5312 15 23 15.4688 23 16C23 16.5625 22.5312 17 22 17H10C9.4375 17 9 16.5625 9 16ZM22 22H10C9.4375 22 9 21.5625 9 21C9 20.4688 9.4375 20 10 20H22C22.5312 20 23 20.4688 23 21C23 21.5625 22.5312 22 22 22Z" fill="#1B1B1B"/>
<rect x="0.5" y="0.5" width="31" height="31" rx="15.5" stroke="#1B1B1B"/>
</svg>
